<!-- icon666.com - MILLIONS vector ICONS FREE --><svg viewBox="0 0 410.245 410" xmlns="http://www.w3.org/2000/svg"><path d="m405.125 383.441406c-10.398438 0-15.84375 5.214844-20.226562 9.410156-3.984376 3.808594-6.859376 6.5625-13.148438 6.5625-6.285156 0-9.164062-2.753906-13.144531-6.5625-4.378907-4.195312-9.824219-9.410156-20.226563-9.410156-10.394531 0-15.839844 5.21875-20.214844 9.410156-3.980468 3.808594-6.855468 6.5625-13.132812 6.5625-6.269531 0-9.144531-2.753906-13.117188-6.5625-4.375-4.191406-9.8125-9.410156-20.203124-9.410156-10.394532 0-15.839844 5.21875-20.214844 9.410156-3.976563 3.808594-6.847656 6.5625-13.121094 6.5625s-9.144531-2.753906-13.121094-6.5625c-4.375-4.191406-9.820312-9.410156-20.207031-9.410156-10.390625 0-15.835937 5.21875-20.210937 9.410156-3.976563 3.808594-6.847657 6.5625-13.121094 6.5625-6.273438 0-9.144532-2.753906-13.121094-6.5625-4.375-4.191406-9.820312-9.410156-20.207031-9.410156s-15.828125 5.21875-20.203125 9.410156c-3.96875 3.808594-6.84375 6.5625-13.113282 6.5625-6.265624 0-9.136718-2.753906-13.105468-6.5625-4.371094-4.191406-9.808594-9.410156-20.191406-9.410156-10.386719 0-15.832032 5.21875-20.207032 9.410156-3.976562 3.808594-6.847656 6.5625-13.121094 6.5625-6.269531 0-9.144531-2.753906-13.117187-6.558593-4.375-4.195313-9.816406-9.414063-20.207031-9.414063-2.832032 0-5.121094 2.289063-5.121094 5.117188 0 2.832031 2.289062 5.121094 5.121094 5.121094 6.273437 0 9.144531 2.753906 13.117187 6.566406 4.375 4.1875 9.820313 9.410156 20.207031 9.410156 10.390626 0 15.835938-5.222656 20.210938-9.410156 3.972656-3.8125 6.84375-6.566406 13.117188-6.566406 6.265624 0 9.132812 2.75 13.101562 6.558593 4.371094 4.195313 9.808594 9.417969 20.195312 9.417969 10.390626 0 15.828126-5.222656 20.203126-9.417969 3.972656-3.808593 6.839843-6.558593 13.113281-6.558593 6.273437 0 9.144531 2.753906 13.117187 6.566406 4.375 4.1875 9.820313 9.410156 20.210938 9.410156s15.835937-5.222656 20.210937-9.410156c3.972657-3.8125 6.84375-6.566406 13.121094-6.566406 6.273437 0 9.144531 2.753906 13.117187 6.566406 4.375 4.1875 9.820313 9.410156 20.210938 9.410156s15.835938-5.222656 20.203125-9.410156c3.980469-3.8125 6.851563-6.566406 13.132813-6.566406 6.269531 0 9.144531 2.753906 13.113281 6.566406 4.375 4.1875 9.816406 9.410156 20.207031 9.410156 10.394531 0 15.839844-5.222656 20.214844-9.410156 3.980468-3.8125 6.855468-6.566406 13.132812-6.566406 6.285156 0 9.167969 2.753906 13.144532 6.566406 4.382812 4.195312 9.828124 9.410156 20.226562 9.410156s15.851562-5.222656 20.230469-9.410156c3.980469-3.8125 6.859375-6.566406 13.144531-6.566406 2.828125 0 5.121094-2.289063 5.121094-5.121094 0-2.828125-2.292969-5.117188-5.121094-5.117188zm0 0" fill="#000000" style="fill: rgb(34, 34, 34);"></path><path d="m405.125 345.820312c-10.398438 0-15.84375 5.214844-20.226562 9.410157-3.984376 3.808593-6.859376 6.566406-13.148438 6.566406-6.285156 0-9.164062-2.757813-13.144531-6.566406-4.378907-4.195313-9.824219-9.410157-20.226563-9.410157-10.394531 0-15.839844 5.21875-20.214844 9.410157-3.980468 3.808593-6.855468 6.566406-13.132812 6.566406-6.269531 0-9.144531-2.757813-13.117188-6.566406-4.375-4.191407-9.8125-9.410157-20.203124-9.410157-10.394532 0-15.839844 5.21875-20.214844 9.410157-3.976563 3.808593-6.847656 6.566406-13.121094 6.566406s-9.144531-2.757813-13.121094-6.566406c-4.375-4.191407-9.820312-9.410157-20.207031-9.410157-10.390625 0-15.835937 5.21875-20.210937 9.410157-3.976563 3.808593-6.847657 6.566406-13.121094 6.566406-6.273438 0-9.144532-2.757813-13.121094-6.566406-4.375-4.191407-9.820312-9.410157-20.207031-9.410157s-15.828125 5.21875-20.203125 9.410157c-3.96875 3.808593-6.84375 6.566406-13.113282 6.566406-6.265624 0-9.136718-2.757813-13.105468-6.566406-4.371094-4.191407-9.808594-9.410157-20.191406-9.410157-10.386719 0-15.832032 5.21875-20.207032 9.410157-3.976562 3.808593-6.847656 6.566406-13.121094 6.566406-6.269531 0-9.144531-2.757813-13.117187-6.5625-4.375-4.195313-9.816406-9.414063-20.207031-9.414063-2.832032 0-5.121094 2.289063-5.121094 5.121094 0 2.828125 2.289062 5.117188 5.121094 5.117188 6.273437 0 9.144531 2.757812 13.117187 6.566406 4.375 4.191406 9.820313 9.410156 20.207031 9.410156 10.390626 0 15.835938-5.21875 20.210938-9.410156 3.972656-3.808594 6.84375-6.566406 13.117188-6.566406 6.265624 0 9.132812 2.75 13.101562 6.5625 4.371094 4.195312 9.808594 9.414062 20.195312 9.414062 10.390626 0 15.828126-5.21875 20.203126-9.414062 3.972656-3.8125 6.839843-6.5625 13.113281-6.5625 6.273437 0 9.144531 2.757812 13.117187 6.566406 4.375 4.191406 9.820313 9.410156 20.210938 9.410156s15.835937-5.21875 20.210937-9.410156c3.972657-3.808594 6.84375-6.566406 13.121094-6.566406 6.273437 0 9.144531 2.757812 13.117187 6.566406 4.375 4.191406 9.820313 9.410156 20.210938 9.410156s15.835938-5.21875 20.203125-9.410156c3.980469-3.808594 6.851563-6.566406 13.132813-6.566406 6.269531 0 9.144531 2.757812 13.113281 6.566406 4.375 4.191406 9.816406 9.410156 20.207031 9.410156 10.394531 0 15.839844-5.21875 20.214844-9.410156 3.980468-3.808594 6.855468-6.566406 13.132812-6.566406 6.285156 0 9.167969 2.757812 13.144532 6.566406 4.382812 4.195312 9.828124 9.410156 20.226562 9.410156s15.851562-5.21875 20.230469-9.410156c3.980469-3.808594 6.859375-6.566406 13.144531-6.566406 2.828125 0 5.121094-2.289063 5.121094-5.117188 0-2.832031-2.292969-5.121094-5.121094-5.121094zm0 0" fill="#000000" style="fill: rgb(34, 34, 34);"></path><path d="m5.585938 325.175781h399.359374c2.828126 0 5.121094-2.289062 5.121094-5.121093 0-2.828126-2.292968-5.121094-5.121094-5.121094h-109.996093v-159.058594l56.75 57.023438c1 1.007812 2.316406 1.511718 3.628906 1.511718 1.308594 0 2.617187-.496094 3.613281-1.488281 2.003906-1.996094 2.011719-5.238281.019532-7.242187l-64.011719-64.324219v-31.574219l56.75 57.023438c1 1.003906 2.316406 1.511718 3.628906 1.511718 1.308594 0 2.617187-.496094 3.613281-1.492187 2.003906-1.996094 2.011719-5.234375.019532-7.238281l-64.011719-64.324219v-31.582031l56.75 57.023437c1 1.007813 2.316406 1.511719 3.628906 1.511719 1.308594 0 2.617187-.496094 3.613281-1.488282 2.003906-1.996093 2.011719-5.238281.019532-7.242187l-64.011719-64.320313v-31.578124l56.75 57.023437c1 1.003906 2.316406 1.511719 3.628906 1.511719 1.308594 0 2.617187-.496094 3.613281-1.492188 2.003906-1.992187 2.011719-5.234375.019532-7.238281l-65.5-65.820313c-1.921876-1.929687-5.339844-1.929687-7.261719 0l-65.5 65.820313c-1.996094 2.003906-1.984375 5.246094.019531 7.238281 2 2 5.25 1.984375 7.242188-.019531l56.75-57.023437v31.578124l-64.011719 64.320313c-1.996094 2.003906-1.984375 5.246094.019531 7.242187 2 2 5.25 1.984376 7.242188-.023437l56.75-57.023437v31.582031l-64.011719 64.324219c-1.996094 2.003906-1.984375 5.242187.019531 7.238281 2 2 5.25 1.984375 7.242188-.019531l56.75-57.023438v31.574219l-64.011719 64.324219c-1.996094 2.003906-1.984375 5.246093.019531 7.242187 2 2 5.25 1.984375 7.242188-.023437l56.75-57.023438v159.058594h-159.175782v-159.058594l56.75 57.023438c1 1.007812 2.316406 1.511718 3.628906 1.511718 1.304688 0 2.617188-.496094 3.609376-1.488281 2.007812-1.996094 2.015624-5.238281.023437-7.242187l-64.011719-64.324219v-31.574219l56.75 57.023438c1 1.003906 2.316406 1.511718 3.628906 1.511718 1.304688 0 2.617188-.496094 3.609376-1.492187 2.007812-1.996094 2.015624-5.234375.023437-7.238281l-64.011719-64.324219v-31.582031l56.75 57.023437c1 1.007813 2.316406 1.511719 3.628906 1.511719 1.304688 0 2.617188-.496094 3.609376-1.488282 2.007812-1.996093 2.015624-5.238281.023437-7.242187l-64.011719-64.320313v-31.578124l56.75 57.023437c1 1.003906 2.316406 1.511719 3.628906 1.511719 1.304688 0 2.617188-.496094 3.609376-1.492188 2.007812-1.992187 2.015624-5.234375.023437-7.238281l-65.5-65.820313c-1.921875-1.929687-5.34375-1.929687-7.261719 0l-65.5 65.820313c-1.996094 2.003906-1.984375 5.246094.019532 7.238281 2 2 5.25 1.984375 7.242187-.019531l56.75-57.023437v31.578124l-64.011719 64.320313c-1.996094 2.003906-1.984375 5.246094.019532 7.242187 2 2 5.25 1.984376 7.242187-.023437l56.75-57.023437v31.582031l-64.011719 64.324219c-1.996094 2.003906-1.984375 5.242187.019532 7.238281 2 2 5.25 1.984375 7.242187-.019531l56.75-57.023438v31.574219l-64.011719 64.324219c-1.996094 2.003906-1.984375 5.246093.019532 7.242187 2 2 5.25 1.984375 7.242187-.023437l56.75-57.023438v159.058594h-109.710937c-2.832032 0-5.121094 2.292968-5.121094 5.121094 0 2.832031 2.289062 5.121093 5.121094 5.121093zm0 0" fill="#000000" style="fill: rgb(34, 34, 34);"></path></svg>